<svg id="Layer_1" enable-background="new 0 0 512.002 512.002" height="512" viewBox="0 0 512.002 512.002" width="512" xmlns="http://www.w3.org/2000/svg"><g><path fill="#EDF5E1" d="m463.998 4.394c-5.857-5.858-15.355-5.858-21.213 0l-53.987 53.988c-5.763-3.461-13.344-2.723-18.312 2.246-4.969 4.969-5.706 12.549-2.246 18.312l-67.794 67.794c7.344 0 20.588.634 36.08 6.346l52.927-52.927c5.763 3.46 13.343 2.724 18.312-2.246 4.969-4.969 5.706-12.549 2.246-18.312l53.988-53.988c5.856-5.858 5.856-15.355-.001-21.213z"/><path fill="#EDF5E1" d="m352.504 198.167c-13.821-13.821-32.197-21.433-51.744-21.433h-112.471c-19.546 0-37.923 7.612-51.743 21.433l-17.247 17.247 250.435-.018z"/><path fill="#EDF5E1" d="m89.296 245.415c-98.095 97.132-27.559 267.277 110.423 266.585h89.61c63.387 0 120.018-37.84 144.274-96.401 24.258-58.561 10.97-125.362-33.873-170.205z"/></g></svg>